<?xml version="1.0" encoding="utf-8"?>
<svg version="1.1" xmlns:xlink="http://www.w3.org/1999/xlink" width="50px" height="32px" xmlns="http://www.w3.org/2000/svg">
  <g transform="matrix(1 0 0 1 -168 -629 )">
    <path d="M 50 7.09565217391305  C 50 7.64186795491143  49.8035566583954 8.11078904991948  49.4106699751861 8.5024154589372  L 26.3957816377171 31.4125603864734  C 26.0028949545079 31.8041867954911  25.5376344086022 32  25 32  C 24.4623655913979 32  23.9971050454921 31.8041867954911  23.6042183622829 31.4125603864734  L 0.589330024813896 8.5024154589372  C 0.196443341604632 8.11078904991948  0 7.64186795491143  0 7.09565217391305  C 0 6.54943639291465  0.196443341604632 6.0805152979066  0.589330024813896 5.68888888888889  L 5.73821339950372 0.58743961352657  C 6.13110008271299 0.195813204508855  6.59636062861869 0  7.13399503722084 0  C 7.671629445823 0  8.1368899917287 0.195813204508855  8.52977667493797 0.58743961352657  L 25 17.0048309178744  L 41.470223325062 0.58743961352657  C 41.8631100082713 0.195813204508855  42.328370554177 0  42.8660049627792 0  C 43.4036393713813 0  43.868899917287 0.195813204508855  44.2617866004963 0.58743961352657  L 49.4106699751861 5.68888888888889  C 49.8035566583954 6.0805152979066  50 6.54943639291465  50 7.09565217391305  Z " fill-rule="nonzero" fill="#dadacf" stroke="none" transform="matrix(1 0 0 1 168 629 )" />
  </g>
</svg>