<?xml version="1.0" encoding="UTF-8"?>
<svg xmlns="http://www.w3.org/2000/svg" xmlns:xlink="http://www.w3.org/1999/xlink" width="86pt" height="50pt" viewBox="0 0 86 50" version="1.1">
<g id="surface1">
<path style=" stroke:none;fill-rule:nonzero;fill:rgb(0%,0%,0%);fill-opacity:1;" d="M 23.773438 9.367188 C 22.339844 9.882812 21.5 11.117188 21.613281 12.539062 C 21.710938 13.632812 22.371094 14.605469 23.363281 15.097656 L 23.839844 15.335938 L 62.160156 15.335938 L 62.636719 15.097656 C 63.25 14.796875 63.820312 14.222656 64.117188 13.605469 C 64.453125 12.914062 64.453125 11.703125 64.117188 11.007812 C 63.820312 10.394531 63.25 9.816406 62.636719 9.519531 L 62.160156 9.277344 L 43.144531 9.257812 C 27.664062 9.242188 24.0625 9.257812 23.773438 9.367188 Z M 23.773438 9.367188 "/>
<path style=" stroke:none;fill-rule:nonzero;fill:rgb(0%,0%,0%);fill-opacity:1;" d="M 23.699219 21.703125 C 21.144531 22.597656 20.859375 25.992188 23.21875 27.296875 L 23.839844 27.644531 L 62.160156 27.644531 L 62.636719 27.402344 C 63.25 27.105469 63.820312 26.527344 64.117188 25.914062 C 64.453125 25.222656 64.453125 24.007812 64.117188 23.316406 C 63.820312 22.703125 63.25 22.125 62.636719 21.828125 L 62.160156 21.585938 L 43.144531 21.566406 C 26.039062 21.546875 24.078125 21.558594 23.699219 21.703125 Z M 23.699219 21.703125 "/>
<path style=" stroke:none;fill-rule:nonzero;fill:rgb(0%,0%,0%);fill-opacity:1;" d="M 23.699219 34.007812 C 21.144531 34.902344 20.859375 38.296875 23.21875 39.605469 L 23.839844 39.953125 L 62.160156 39.953125 L 62.636719 39.710938 C 63.25 39.414062 63.820312 38.835938 64.117188 38.222656 C 64.453125 37.527344 64.453125 36.316406 64.117188 35.625 C 63.820312 35.007812 63.25 34.433594 62.636719 34.132812 L 62.160156 33.894531 L 43.144531 33.875 C 26.039062 33.855469 24.078125 33.867188 23.699219 34.007812 Z M 23.699219 34.007812 "/>
</g>
</svg>
